<svg id="logo_mf.svg" xmlns="http://www.w3.org/2000/svg" width="517.313" height="128.843" viewBox="0 0 517.313 128.843">
  <defs>
    <style>
      .cls-1, .cls-2 {
        fill-rule: evenodd;
      }

      .cls-2 {
        fill: #e60012;
      }
    </style>
  </defs>
  <path id="シェイプ_3" data-name="シェイプ 3" class="cls-1" d="M657.471,322.7c-0.039-.144-0.078-0.276-0.115-0.4,0.019-.084.025-0.156,0.037-0.228a5.405,5.405,0,0,0-.547-4.778,6.362,6.362,0,0,0-4.6-2.576l-0.446-.471c-0.078-.1-0.16-0.179-0.238-0.269a9.631,9.631,0,0,0-6.419-2.6,4.3,4.3,0,0,0-2.063.4,1.3,1.3,0,0,0-.2.06c-0.084.026-.168,0.061-0.232,0.082a5.9,5.9,0,0,0-4.254,3.269,6.8,6.8,0,0,0-1.636.508,8.028,8.028,0,0,0-1.471,1.04,7.341,7.341,0,0,0-4.582-1.585,10.023,10.023,0,0,0-1.006-.7c-5.536-3.121-10.132,1.318-12.335,3.472-0.291.276-.7,0.662-0.992,0.942a7.444,7.444,0,0,0-3.138.952c-0.168-.225-0.342-0.494-0.49-0.687a12.2,12.2,0,0,0-3.461-3.8c-1.941-1.281-5.769-2.687-9.712,1.973l-0.162.167c0,0.012-.1.109-0.16,0.183a7.941,7.941,0,0,0-1.174,1.427,7.6,7.6,0,0,0-4.215-3.592,7.143,7.143,0,0,0-5.536.084c-2.657.568-6.541,2.288-7.869,4.474a7.092,7.092,0,0,0-.922,3.242,31.87,31.87,0,0,1-9.448-1.912l-0.973-.534-0.762-.418c-0.09-.1-0.205-0.2-0.314-0.316a8.765,8.765,0,0,0-4.318-2.55,7.769,7.769,0,0,0-1.342-.411c-0.025,0-.025,0,0,0.008a10.794,10.794,0,0,0-8.1,1.452,8.5,8.5,0,0,0-1.92,1.8,8.883,8.883,0,0,0-4.738,2.165,3.4,3.4,0,0,0,.3-1.67,4.034,4.034,0,0,0-1.488-2.936c-1.238-1.054-1.386-1.186-10.493-1.694-2.191-.135-4.91-0.246-7.605-0.3a18.657,18.657,0,0,1,1.869-3.762l1.154-.859,1.418-1.014a5.328,5.328,0,0,0,.678-0.617,5.937,5.937,0,0,0,1.224-2.263,5.159,5.159,0,0,0,2.57-6,9.481,9.481,0,0,0-3.138-4.694c-0.194-.168-0.438-0.425-0.619-0.6L533.441,296l-0.272-1a4.137,4.137,0,0,0-.328-0.9c-1.656-3.14-5.576-4.229-8.7-4.182a4.491,4.491,0,0,0-2.539.822l-1.3.932-1.339.931a5.729,5.729,0,0,0-.485.413,0.541,0.541,0,0,1-.1.082c-1.205.847-3.4,2.42-4.246,4.766a3.137,3.137,0,0,0-.188.713c-0.058.387-.168,0.87-0.263,1.357-0.11.553-.227,1.123-0.323,1.715a0.321,0.321,0,0,0-.044.109,7.108,7.108,0,0,0-.748,2.128l-1.477,4.7a0.937,0.937,0,0,1-.045.132l-1.34,4.86-0.425,1.523a9.888,9.888,0,0,0-4.15.05,4.142,4.142,0,0,0-2.766,2.212,6.214,6.214,0,0,0-1.457,1.587,9.416,9.416,0,0,0-2.875-2.021,14.906,14.906,0,0,0-6.534-.847c-0.471.025-.914,0.025-1.315,0.025-0.187,0-.437-0.013-0.714-0.025a10.9,10.9,0,0,0-4.725.5c-6.445,2.442-9.95,9.709-12.516,15.02l-0.684,1.428c-0.025.033-.644,1.3-1.146,2.379a4.169,4.169,0,0,0-1.18-.144l-0.142.013a4.261,4.261,0,0,0-3.789,2.226c-0.838.968-3.512,3.54-6.219,6.02a9.911,9.911,0,0,1,.083-1.158,5.837,5.837,0,0,1,.484-0.643,7.711,7.711,0,0,0,2.14-5.987c-0.168-1.305-1.3-2.892-2.681-4.28,0.168-.085.348-0.194,0.515-0.29,0.026-.013.065-0.049,0.09-0.062a14.716,14.716,0,0,0,1.289-1.137c0.045-.059.1-0.1,0.143-0.154,1.8-2.105,2.228-6.869,1.849-8.649-1.019-4.788-8.681-10.919-14.128-11.342a5.025,5.025,0,0,0-2.048.316,9.17,9.17,0,0,0-4.957,3.977,6.047,6.047,0,0,0-.65.277,39.45,39.45,0,0,0-7.426,6.038,9.843,9.843,0,0,0-2.056,2.416,0.651,0.651,0,0,0-.025-0.218,6.521,6.521,0,0,0-4.047-5.031,6.654,6.654,0,0,0-3.758-4.159,6.754,6.754,0,0,0-5.3.239,4.891,4.891,0,0,0-.676.076,6.331,6.331,0,0,0-1.843.022c-0.129.025-.244,0.05-0.4,0.074-2.662.726-7.919,2.578-12.54,4.221,0.438-2.2,1.031-5.018,1.637-7.888,6.56,0.039,22.485.775,26.668,1.028,0.053,0,.1.014,0.135,0.014l4.6,0.134,2.377,0.084a4.405,4.405,0,0,0,3.216-1.184c0.148-.134.277-0.3,0.412-0.448a29.253,29.253,0,0,1,3.242.084,4.487,4.487,0,0,0,3.469-1.028,2.046,2.046,0,0,0,.328-0.29l5.316,0.29a4.41,4.41,0,0,0,3.267-1.137,3.876,3.876,0,0,0,1.258-3.024c-0.162-3.277-2.895-3.82-6.039-4.463l-2.41-.48A4.36,4.36,0,0,0,447,296.043c-1.264-.255-9.417-1.344-12.239-1.671a0.33,0.33,0,0,0-.116-0.014l-7.1-.687-7.249-.7h-0.129c-1.695-.105-8.6-0.821-12.825-1.337a4.466,4.466,0,0,0-.735-2.337,10.225,10.225,0,0,0-3.855-3.434l-0.109-.133c-1.567-2.905-5.254-5.732-9.1-5.674a4.737,4.737,0,0,0-1.734.378,7.375,7.375,0,0,0-4.1,1.632c-3.046.689-4.859,2.807-5.431,6.277l-0.562-.074-5.084-.689c-0.1-.012-0.154-0.012-0.252-0.025l-3.447-.265c-0.375-.084-0.851-0.242-1.367-0.386-2.41-.726-6.072-1.816-9.525-0.146a6.723,6.723,0,0,0-3.7,4.463,6.64,6.64,0,0,0-3.705,2.574c-1.193,1.682-4.821,6.86-1.992,11.646a7.569,7.569,0,0,0,1.934,2.141c0.045,0.045.115,0.1,0.162,0.146l1.592,2.31c0.076,0.095.166,0.229,0.244,0.325l0.806,0.979,0.342,0.389,0.992,3.081a6.057,6.057,0,0,0,.071,4.221c0.767,1.838,2.5,3.372,5.195,4.484,3.609,1.529,10.729,2.845,14.68,1.357,0.246-.109.484-0.22,0.709-0.329-0.09.693-.18,1.309-0.264,1.794l-0.574.338-0.168.084a16.581,16.581,0,0,0-5.509,3.844,5.127,5.127,0,0,0-1.367.666c-1.25.856-2.1,1.466-2.223,9.118-0.084,3.569,2.211,5.829,6.832,6.748-0.059.6-.117,1.258-0.188,2.01-0.566,6.129-1.726,18.887-4.027,23.76a1.86,1.86,0,0,1-.109.24c-0.857,1.779-2.289,4.766-1.225,7.981,0.012,0.039.051,0.109,0.065,0.159l0.508,1.367v0.277a8.03,8.03,0,0,0,.484,2.912,0.122,0.122,0,0,0-.02-0.07,4.9,4.9,0,0,1,.045.762c0.039,3.483,1.69,5.284,3.654,6.19,1.547,2.095,4.195,3.23,5.568,3.81l0.42,0.181c0.012,0,.233.095,0.233,0.095,1.455,0.668,5.366,2.4,8.667-.276a1.617,1.617,0,0,0,.219-0.193c0.117-.109.226-0.218,0.31-0.29a3.921,3.921,0,0,0,.4-0.483l0.322-.448a2.36,2.36,0,0,0,.246-0.373,10.592,10.592,0,0,0,1.062-5.262,11.586,11.586,0,0,1,.084-1.318l0.477-1.065L394,385.6a3.325,3.325,0,0,0,.316-0.956l0.477-2.732a4.477,4.477,0,0,0,.7-0.749,12.933,12.933,0,0,0,2.08-4.646c0.027-.109.039-0.265,0.072-0.374,0-.025.012-0.086,0.012-0.109a14.993,14.993,0,0,0-.309-4.741c-0.05-.323-0.109-0.625-0.168-0.88a52.845,52.845,0,0,1-.683-7.475l1.445-10.265,1.256-8.939c0.045-.314.07-0.629,0.109-0.906a9.738,9.738,0,0,1,.233-1.536,112.028,112.028,0,0,1,11.35-4.8c-0.174.315-.347,0.63-0.535,0.965a4.93,4.93,0,0,0-.908,2.87,4.153,4.153,0,0,0,1.024,2.477c-0.62.775-1.225,1.515-1.76,2.165-2.732,3.353-2.957,3.628-2.887,5.127a4.456,4.456,0,0,0,4.607,4.054c1.625-.028,2.18-0.037,7.42-4.876a0.532,0.532,0,0,1,.154.062,19,19,0,0,0-1.224,3.772c-0.026.218-.135,0.8-0.227,1.344-0.541,3.13-.726,4.639-0.572,5.827,0.554,4.036,2.681,6.18,4.562,8.053a6.347,6.347,0,0,0,5.492,1.8c0.121-.023.263-0.048,0.412-0.074a1,1,0,0,1,.224-0.058,2.732,2.732,0,0,0,.317-0.109c0.148-.047.252-0.1,0.3-0.109h0a4.533,4.533,0,0,0,1.425-.857l0.541-.522c0.264-.074.555-0.157,0.774-0.2a19.8,19.8,0,0,0,2.023-.643l1.521-.229,0.309-.061a3.277,3.277,0,0,0,1.129-.327l1.353-.592a17.822,17.822,0,0,0,6.07-2.817,4.008,4.008,0,0,0,.728-0.8l1.522-2.272a1.593,1.593,0,0,0,.238.193,7.531,7.531,0,0,0,3.312,1.305h0.008a7.075,7.075,0,0,0,6.025,1.972,4.086,4.086,0,0,0,1.225-.4,53.724,53.724,0,0,0,8.282-5.129,10.166,10.166,0,0,0,.811,4.985c2.224,4.846,6.5,4.9,8.276,4.883a6.282,6.282,0,0,0,5.174,2.142c2.011-.137,4.1-1.246,9.308-4.923l0.7-.506a53.869,53.869,0,0,0,6.419-5.5c0.864-.835,1.7-1.694,2.36-2.409a12.382,12.382,0,0,0,1.037-1.232c0.336-.362,1.341-1.379,1.611-1.609,0,0-.039.033-0.121,0.1a3.848,3.848,0,0,0,1.463-2.344c0.084-.111.173-0.23,0.263-0.328a3.825,3.825,0,0,0,1.135-2.9c0.56-.617,1.146-1.256,1.715-1.91a47.563,47.563,0,0,0,.423,12.446c0-.014.129,0.578,0.129,0.578a10.323,10.323,0,0,0,2.34,5.366c3.506,3.86,10.2,2.639,13.276,1.081,4.214-1.863,9.275-6.544,15.4-14.344a0.046,0.046,0,0,0,.02-0.037,2.982,2.982,0,0,0,.347-0.3,4.147,4.147,0,0,0,.485-0.58,14.764,14.764,0,0,0,.205,3.81,2.107,2.107,0,0,1-.051-0.268c0.613,5,3.474,6.883,5.576,8.238l0.617,0.411c1.922,1.3,4.41,1.22,7.232.989l0.437-.047a20.8,20.8,0,0,0,10.538-3.518,27.459,27.459,0,0,0,10.248-11.85,10.461,10.461,0,0,0,1.449,8.849c0.143,0.172.277,0.341,0.42,0.5l1.127,1.146,0.91,0.906a0.478,0.478,0,0,0,.09.134c1.076,1.536,2.906,4.087,6.038,4.621a7.318,7.318,0,0,0,6.619-2.5,5.283,5.283,0,0,0,.471-0.608l0.65-1.086,0.588-.958a4.715,4.715,0,0,1,.418-0.458,8.808,8.808,0,0,0,2.056-3.059,17.694,17.694,0,0,0,.7-3.785,10.424,10.424,0,0,1,.426-2.42,88.739,88.739,0,0,1,6.839-10l3.61-4.465c0.966-1.2,1.693-2.126,2.286-2.866a3.925,3.925,0,0,0,1.077-.411,2.213,2.213,0,0,0,.47-0.218,2.8,2.8,0,0,1-.347.171v-0.013a2.281,2.281,0,0,0,.361-0.172,2.377,2.377,0,0,0,.5-0.288,0.369,0.369,0,0,1-.154.049,0.369,0.369,0,0,0,.154-0.049,0.6,0.6,0,0,1,.078-0.06,0.025,0.025,0,0,1,.025.013,0.033,0.033,0,0,0-.039.026A0.049,0.049,0,0,1,608,331.8a0.352,0.352,0,0,1-.045.014,4.559,4.559,0,0,1-.51.3,4.875,4.875,0,0,0,.627-0.327h0a12.743,12.743,0,0,0,4.814-.181h0c-4.2,19.952-4.158,20.558-4.08,21.438,0.2,2.408,2.108,8.213,6.535,9.76,4.054,1.4,8.552-2.768,8.6-2.8,0.1-.123.227-0.269,0.336-0.4,0.656-.822,1.637-1.934,2.791-3.129-2.4,7.714-5.125,16.022-6.131,18.415a6.9,6.9,0,0,1-2.326.423c-2.287-.1-6.663-1.741-11.458-4.305,0,0.013-3.468-1.862-3.468-1.862l-3.492-1.873a7.221,7.221,0,0,1-.813-0.582,9.1,9.1,0,0,0-7.644-2.14c-6.394.425-6.851,5.876-6.991,7.716-0.028.193-.034,0.411-0.059,0.641a4.107,4.107,0,0,0-.644.109l-0.678.181a4.142,4.142,0,0,0-2.783,2.321,3.794,3.794,0,0,0,.244,3.532,13.356,13.356,0,0,0,1.5,2.008c0.387,1.972,2.306,3.084,3.886,3.761a4.28,4.28,0,0,0,1.326,1.2,12.182,12.182,0,0,0,4.01,1.717,0.653,0.653,0,0,1,.162.037l1.307,0.432,0.916,0.294a0.464,0.464,0,0,0,.142.084A10.69,10.69,0,0,0,597.282,390a8.646,8.646,0,0,0,3.345.1c0.1-.014.233-0.026,0.309-0.039,0.322,0.048,1.07.171,1.07,0.171a105.115,105.115,0,0,0,22.229,1.5c0.064,0,.154-0.011.238-0.011,1.141-.111,1.978-0.137,2.721-0.158,3.589-.109,5.1-0.6,8.894-3.7a3.812,3.812,0,0,0,1.132-1.5,47.273,47.273,0,0,0,2.211-6.1c0.193-.689.387-1.318,0.672-2.151l2.242-6.895c3.66-11.2,11.265-34.5,12.522-37.789a7.105,7.105,0,0,1,.606-1.234,14.592,14.592,0,0,0,1.154-2.345c-0.033.086-.072,0.17-0.1,0.265A11.466,11.466,0,0,0,657.471,322.7Zm-202.85,10.341h0a1.142,1.142,0,0,0,.017-0.171C454.626,332.946,454.626,333.008,454.621,333.045Zm38.6,10.361c-0.24-.022-0.465-0.033-0.722-0.033a4.514,4.514,0,0,0-3.293,1.472,45.749,45.749,0,0,1-6.117,5.262,3.787,3.787,0,0,1,.143-0.484l1.1-3.12a47.226,47.226,0,0,1,3.531-8.526,6.288,6.288,0,0,0,2.674,3.18,7.838,7.838,0,0,0,3.906,1.125C494.055,342.672,493.629,343.045,493.225,343.406Zm40.647-11.839a3.8,3.8,0,0,0-.929,1.128,2.993,2.993,0,0,0-.245.508,6.671,6.671,0,0,0-1.5.87c0.019-.025.064-0.048,0.089-0.074a0.468,0.468,0,0,1-.1.084,3.351,3.351,0,0,0-.4.341c-0.284.255-.665,0.6-1.18,1.084l-3.474,3.316c-1.1,1.052-2.436,2.333-3.615,3.437,0.431-3.277,1.037-7.742,1.451-10.222,0.908-.2,2.035-0.423,2.912-0.59,1.908-.363,3.886-0.762,5.329-1.184a14.967,14.967,0,0,1,3.449-.364C535.083,330.4,534.483,330.964,533.872,331.567Zm19.657,15.519c0.443-1.2,1.107-2.769,2.133-4.9,0.289-.651.541-1.112,0.67-1.486a24.88,24.88,0,0,1,1.218-2.441C557.749,341.157,557.085,344.942,553.529,347.086Zm21.26-11.708,0.3,0.06a4.447,4.447,0,0,1-1.662.473c0-.062-0.02-0.109-0.02-0.171A3.737,3.737,0,0,0,574.789,335.378Zm-0.625.966c-0.031,0-.121-0.047-0.314-0.117,0.037,0.021.056,0.021,0.076,0.035C574,336.285,574.088,336.322,574.164,336.344Zm1.637,5.286-0.883.966-1.469,1.575c-0.089.1-.179,0.216-0.257,0.311a14.834,14.834,0,0,0-.909,1.441,23.935,23.935,0,0,0,1.166-9.745c0.264,0.049.606,0.144,0.715,0.166a4.7,4.7,0,0,0,2.85.027C576.557,338.511,576.105,340.627,575.8,341.63Zm30.2-9.083a0.038,0.038,0,0,1,.039-0.012,0.484,0.484,0,0,0,.168-0.021A1.23,1.23,0,0,1,606,332.547Zm1.554-.59v0c-0.078.023-.148,0.035-0.232,0.06,0.084-.025.154-0.037,0.232-0.06a0.134,0.134,0,0,1,.051-0.039,0.053,0.053,0,0,0-.039.039,0.124,0.124,0,0,0,.053-0.028A0.1,0.1,0,0,1,607.556,331.957ZM334.2,325.233a4.082,4.082,0,0,0-1.308.335,26.984,26.984,0,0,0-8.43,5.431,4.558,4.558,0,0,0-1.172.821l-0.084.1a60.557,60.557,0,0,0-2.443,1.779c-0.019.012-.019,0.012-0.019,0.024a0.373,0.373,0,0,0-.11.1c-0.194-.169-0.348-0.329-0.49-0.438-0.09-.072-0.18-0.144-0.277-0.232l-1.611-1.158-8.436-6.06a5.314,5.314,0,0,0-1.225-.64,6.385,6.385,0,0,0-4.75.276,10.73,10.73,0,0,0-5.253,1.613,11.2,11.2,0,0,0-3.776,4.386c-0.252.425-.477,0.824-0.664,1.077-0.186.28-.444,0.582-0.716,0.919-1.411,1.731-3.8,4.669-2.757,8.61a4.977,4.977,0,0,0,.96,1.945,4.381,4.381,0,0,0-1.121,1.042l-0.188.255-0.226.3a3.964,3.964,0,0,1,.7-0.724,8.6,8.6,0,0,0-.722.823c-0.071.057-.155,0.107-0.252,0.193l-2.268,1.727c-0.586.461-1.379,1.065-2.2,1.694,0.109-.506.212-1.007,0.315-1.418,0.767-3.323,1.882-8.185-1.521-11.811a7.148,7.148,0,0,0,.078-5.6,1.762,1.762,0,0,1-.084-0.314l-0.013-.385-0.019-.81a4.161,4.161,0,0,0-.039-0.547c-0.484-3.141-2.707-8.766-7.85-9.818-5.414-1.088-10.241,3.75-13.766,7.306-0.51.494-.961,0.967-1.309,1.291a25.266,25.266,0,0,0-2.8,3.436c-0.335.436-.786,1.015-1.225,1.609a5.207,5.207,0,0,0-1.624.035c-1.985.412-12.239,2.469-12.812,2.578,0.025-.014-2.546.457-2.546,0.457-0.283.049-4.459,0.74-6.831,1.126a48.482,48.482,0,0,1-.122-11.767h0a5.2,5.2,0,0,1,.34-0.763,9.424,9.424,0,0,0,1.11-3.929,6.721,6.721,0,0,0-.845-3.312,3.965,3.965,0,0,1-.032-0.471,8.179,8.179,0,0,0-3.616-6.992,7.934,7.934,0,0,0-4.383-1.451,1.267,1.267,0,0,1-.322-0.037l-0.644-.22-3.912-1.386a6.226,6.226,0,0,0-.761-0.193,6.714,6.714,0,0,0-4.975,1.112,7.236,7.236,0,0,0-3.022,6.2,6.893,6.893,0,0,1-.072.8c-1.507,2.515-2.957,4.873-4.382,7.075A4.319,4.319,0,0,0,206,322.463a4.945,4.945,0,0,0-.741,1.049c-2.03,3.425-4.331,6.725-6.606,9.87-0.374-5.937-.6-14.922-0.709-19.5-0.058-2.409-.1-3.838-0.122-4.6a43.553,43.553,0,0,0-.393-5.43c-0.135-1.268-.31-3.131-0.355-3.858l0.116-.568,0.168-.919a2.806,2.806,0,0,0,.071-0.617,18.421,18.421,0,0,0-.071-1.846,7.406,7.406,0,0,1-.007-1.3c0.026-.095.11-0.278,0.155-0.436a6.61,6.61,0,0,0,.5-4.825,6.419,6.419,0,0,0-2.282-3.01c-0.038-.024-0.1-0.07-0.122-0.084-0.091-.1-0.335-0.339-0.335-0.339-1.792-1.8-5.079-5.1-10.113-4.184l-1.224.014-1.579-.1a4.846,4.846,0,0,0-2,.29l-0.038.012H180.28a0.249,0.249,0,0,1-.052.021,7.892,7.892,0,0,0-5.6,5.916c-0.225.109-.47,0.227-0.7,0.337-1.579.788-3.945,1.972-5.15,4.562a6.811,6.811,0,0,0,.741,6.939l-0.154.29a2.868,2.868,0,0,0-.309.582,12.44,12.44,0,0,0,1.579,6.023,21.542,21.542,0,0,1-.484,3.02c-0.141.691-.315,1.452-0.464,2.564-0.76,2.663-7.443,21.213-11.923,33.583-3.705,10.3-6.651,18.453-7.218,20.232,0,0-2.784,8.766-3.319,10.423a16.754,16.754,0,0,1-1.586,2.453,19.953,19.953,0,0,0-2.675,4.551,9.4,9.4,0,0,0-.515,3.612c0.007,0.28.007,0.714-.013,0.9-0.135.312-.3,0.676-0.464,1.063-0.832,1.887-1.972,4.477-1.392,7.582,0.451,2.53,1.3,7.255,5.794,9.154a3.172,3.172,0,0,0,.851.278l1.23,0.269,0.433,0.362c0.077,0.056.174,0.144,0.27,0.2a12.008,12.008,0,0,0,7.128,1.9,13.736,13.736,0,0,0,5.542-1.464,8.067,8.067,0,0,0,2.753-2.711c0.051-.072.11-0.156,0.154-0.232l0.877-.578,0.921-.617c0.059-.012.1-0.025,0.161-0.037a7.177,7.177,0,0,0,3.352-1.957c0.078-.095.161-0.171,0.193-0.218a0.465,0.465,0,0,1-.077.06,1.788,1.788,0,0,0,.232-0.253,7.468,7.468,0,0,0,1.366-3.736c0.033-.193.058-0.45,0.09-0.547a4.654,4.654,0,0,1,.51-1,8.279,8.279,0,0,0,1.379-3.289c0.1-.122.219-0.239,0.322-0.362,2.153-2.673,1.1-6.384.174-9.675-0.174-.642-0.425-1.548-0.516-2.056a3.836,3.836,0,0,0,.123-1.112,4.7,4.7,0,0,0-.844-2.443,1.62,1.62,0,0,0,.019-0.2l0.039-.422c0.754-2.637,4.814-15.443,8.23-25.663a14.808,14.808,0,0,0,.9,2.263,17.889,17.889,0,0,1,.625,1.912c0.942,3.228,2.095,7.229,5.858,8.464a6.837,6.837,0,0,0,5.582-.485,7.425,7.425,0,0,0,5.471-.8c2.656-1.561,9.494-9.116,10.564-10.8,0.87-1.4,1.669-2.827,2.442-4.258a6.708,6.708,0,0,0,2.54,2.42c0,0.013,0,.013.013,0.013a2.369,2.369,0,0,0,.1.314c0.787,2.36,1.69,5,4.241,6.131,3.339,1.472,6.471-.181,8.327-1.174,0.271-.13.619-0.315,0.864-0.432,0.2,0.033.515,0.084,0.734,0.13a11.072,11.072,0,0,0,4.93.084c0.29-.072.922-0.214,11.3-3.518l0.09-.049c-0.805,1.863-2.139,5.261-3.248,8.5-2.8,8.129-2.713,10.22-1.405,12.058,1.934,2.755,6.858,6.759,11.794,5.719a34.427,34.427,0,0,0,8.379-3.688,16.261,16.261,0,0,0,2.584-2.587,11.878,11.878,0,0,1,1.238-1.317c0.045-.039,2.667-2.348,4.846-4.6,0.974,3.3,3.029,5.043,6.11,5.213,3.828,0.206,12.226-4.96,12.857-5.419,0.058-.049.174-0.133,0.278-0.228a1.731,1.731,0,0,1-.091.263l-0.754,1.33-0.915,1.624a3.73,3.73,0,0,0-.335.773l-0.238.8h0a7.266,7.266,0,0,0-2.817,3.1c-0.857,1.935-.657,4.4.626,7.268,2.338,5.259,6.914,7.74,12.541,6.821,0.135-.023.29-0.035,0.458-0.062a7.918,7.918,0,0,0,3.711-1.28c2.2-1.524,3.319-5.191,3.41-7.33a5.428,5.428,0,0,0-.091-1.439c0.02-.022.046-0.047,0.059-0.061a11.086,11.086,0,0,0,1.128-1.668c0.438-.808.793-1.595,1.14-2.358a24.131,24.131,0,0,1,1.676-3.252c1.908-3,8.359-9.819,11.852-13.485a6.5,6.5,0,0,0,1.631,4.778,4.33,4.33,0,0,0,.393.35,5.416,5.416,0,0,0,3.951,1.079c0.528,0,1.882-.039,2.417.023a13.478,13.478,0,0,1,2.79,1.667c0.1,0.2.232,0.364,0.322,0.508l0.026,0.051a4.494,4.494,0,0,0,2.34,1.922h0a5.09,5.09,0,0,0,2.326.545,4.145,4.145,0,0,0,1.09-.148,1.839,1.839,0,0,1,.263.039c4.273,4,5.808,5.185,8.546,4.291a3.962,3.962,0,0,0,2.842-3.941c-0.071-1.45-.7-2.624-3.158-5.261a4,4,0,0,0,.143-1.188,4.22,4.22,0,0,0-1.321-2.755,0.213,0.213,0,0,1,.045.026c-0.052-.047-0.258-0.279-0.439-0.472-2.159-2.227-4.737-4.875-6.8-6.663,0.09,0,.186.012,0.283,0.012a5.531,5.531,0,0,0,1.1-.144,4.6,4.6,0,0,0,1,.5,4.558,4.558,0,0,0,3.113,1.111h0.155a4.192,4.192,0,0,0,4.137-3.156l0.587-2.685,0.477-2.14a0.939,0.939,0,0,0,.039-0.253c1.051-6.943,0-11.84-3.248-14.957C343.007,325.825,339.133,324.739,334.2,325.233ZM173.23,381.327a1.955,1.955,0,0,1-.342.487A2.918,2.918,0,0,0,173.23,381.327Zm31.934-57.608a1,1,0,0,1,.058-0.131A0.507,0.507,0,0,0,205.164,323.719ZM291,345.174a2.794,2.794,0,0,1,.361-0.544,1.838,1.838,0,0,1,.477-0.243,3.545,3.545,0,0,0,.252.278A6.244,6.244,0,0,0,291,345.174Zm29.653-11.33a0.216,0.216,0,0,1,.07-0.1,0.167,0.167,0,0,0-.07.1h0Zm0.818-.5a5.029,5.029,0,0,0-.812.52c0-.014-0.006-0.014-0.006-0.025a3.837,3.837,0,0,1,.9-0.585A0.5,0.5,0,0,1,321.474,333.349Zm10.473,29.929h0a0.908,0.908,0,0,1,.084.155A0.908,0.908,0,0,0,331.947,363.278Z" transform="translate(-140.406 -280.063)"/>
  <path id="シェイプ_2" data-name="シェイプ 2" class="cls-2" d="M613.922,324.536c0.258,0.049.774-.3,1.026-0.279,0,0.059,1.063.353,1.063,0.4A5.8,5.8,0,0,1,613.922,324.536ZM541.32,326c0.116,0,.769.1,0.864,0.1-0.011-.1,1.517.111,1.5,0.025-0.148,0-2.367-.4-2.515-0.4A2.271,2.271,0,0,1,541.32,326Zm-213.664,8.506h-0.149a0.469,0.469,0,0,1,.013.133c0.838-.57,1.793-1.429,2.638-1.987a13.9,13.9,0,0,1,6.527-3.137,7.9,7.9,0,0,1,4.508.921c6.566,3.112,3.283,11.984,2.832,17.1h0.167c0.349-1.621.7-3.208,1.064-4.835,1.168-7.707-.161-14.347-9.809-13.4A23.656,23.656,0,0,0,327.656,334.509Zm277.069-6.156c0.013,0.084-.169.23-0.169,0.328,0.258,0,.7.085,0.942,0.072,0-.035.634-0.24,0.62-0.289,0.07,0,.864-0.472.909-0.472,0-.244-1.767.24-2.011,0.214A3.166,3.166,0,0,0,604.725,328.353ZM326.5,335.369h-0.167c0,0.061.012,0.1,0.012,0.145,0.394-.3.787-0.593,1.174-0.872h-0.31C326.972,334.9,326.727,335.127,326.5,335.369Zm-0.742.57h-0.147c0,0.049,0,.1,0,0.158,0.239-.193.478-0.4,0.729-0.583h-0.309C325.959,335.648,325.85,335.808,325.759,335.939Zm247.977-4.134c0.3,0.062,1.012.206,1.321,0.245,0,0.1,1.284.326,1.3,0.4C576.032,332.327,574.051,331.953,573.736,331.805Zm-249.4,5.09a4.975,4.975,0,0,0-.625.632c0.245-.171,1.651-1.248,1.9-1.43-0.1,0-.618.193-0.722,0.193C324.811,336.435,324.437,336.751,324.34,336.9Zm-1.947,1.71c-0.045,0,.754-0.619,1.187-0.955-0.1,0-.394.131-0.484,0.131C322.8,338.062,322.677,338.316,322.393,338.605Zm-0.845.655a7.318,7.318,0,0,1,.7-0.579h-0.3C321.871,338.823,321.638,339.114,321.548,339.26Zm13.3,15.475c1.489,1.868,10.951,10.578,11,11.852-0.444.135-8.37-7.463-13.118-12.238-0.444-.414-3.669-3.563-4.469-4.039,0.019,0.051,5.069,5.079,8.223,8.814,0.148,0.179,2.528,2.823,2.528,2.919-0.051,0-3.134-3.126-3.134-3.175-0.059,0,1.084,1.745,1.2,1.912-0.051,0-1.367-1.344-1.722-1.682-0.058.012,0.665,1.468,0.665,1.552-0.033,0-3.593-2.812-5.631-3.128-1.283-.219-4.108-0.047-4.185-0.109-0.813-.838-0.207-2.7-0.645-3.768-0.491-1.152-4.316-3.94-4.889-3.915-1.322,1.468-12.164,12.434-15.047,16.929-1.213,1.891-1.947,3.952-2.967,5.924-0.471.876-2,2.266-1.954,3.275,1.168,1.04-.309,5.139-1.258,5.791a5.32,5.32,0,0,1-2.379.618c-3.915.644-6.237-1.223-7.591-4.265-0.5-1.1-1.123-2.933-.593-4.17,0.509-1.161,2.025-1.489,2.689-2.556,0.161-.581.355-1.161,0.529-1.758,0.593-1.063,1.206-2.144,1.818-3.208a13.441,13.441,0,0,1,1.394-3.418c1.089-1.1,19.187-18.215,19.187-18.3-1.193-.644-2.535-2.121-3.915-2.279-0.142-.026-4.625.8-4.754,0.886a21.928,21.928,0,0,0-4.507,3.717,109.911,109.911,0,0,0-8.779,8.8c-0.986,1.018-5.294,5.27-5.681,5.565-1.671,1.223-8.449,4.675-9.959,4.579-1.856-.1-1.766-1.914-2.3-3.081-0.444-.507-0.871-1.016-1.315-1.5-0.761-1.6-.581-3.895-0.677-5.749-0.052,0-2.284,2.8-3.29,4.108-1.019,1.613-5.476,5.735-6.508,6.62-1.392,1.15-2.263,2.689-3.682,3.792a33.718,33.718,0,0,1-6.623,2.9c-2.509.519-5.766-2.1-7.044-3.914-1.012-1.43,4.418-15.464,5.45-17.549,1.084-2.117,2.155-4.254,3.238-6.385,0.252-.523.5-1.055,0.768-1.59,0.045,0-19.917,6.425-21.09,6.716-1.91.461-3.76-.679-5.54-0.291-1.651.361-4.38,2.787-6.288,1.938-0.949-.412-1.729-3.4-2.116-4.386-0.7-1.72-2.309-1.712-2.76-2.775-1.283-2.886-1-7.926-1.168-11.222a0.615,0.615,0,0,1-.142.01,0.355,0.355,0,0,0,.02.148h-0.168c-3.431,4.824-5.547,10.239-8.655,15.158-0.968,1.529-7.372,8.411-9.151,9.465a2.807,2.807,0,0,1-2.974-.049c-0.161-.17-0.323-0.337-0.49-0.521-1.3.668-2,2.072-3.812,1.481-2.212-.718-2.915-6.388-3.889-8.242-0.729-1.346-1.858-5.77-3.354-12.289-0.135-.591-0.077-3.526-0.328-3.526v-0.144h-0.155v0.144c-1.536,1.357-13.447,39.31-13.647,40.245-0.052.728-.11,1.467-0.161,2.206-0.071.74,0.883,1.005,0.909,1.682-1.174,1.359,4.031,10.74-.155,10.8,0.658,2.679-1.038,3.248-1.683,5.516-0.3.956-.181,2.179-0.8,3-0.058.05-.091,0.1-0.148,0.148-0.633.7-1.619,0.7-2.4,1.14-0.819.532-1.652,1.088-2.464,1.609-0.942.74-1.148,1.9-2.3,2.535a8.922,8.922,0,0,1-3.528.921,7.274,7.274,0,0,1-4.2-1.03c-0.445-.379-0.87-0.742-1.316-1.079-0.787-.158-1.541-0.342-2.309-0.5-2.29-.981-2.818-3.928-3.218-6.061-0.439-2.485.942-4.655,1.716-6.688,0.5-1.321-.046-3.105.484-4.426,0.973-2.5,3.173-4.482,4.269-6.956q1.694-5.359,3.406-10.724c1.347-4.265,18.393-50.775,19.264-54.314,0.342-2.752.806-3.007,1.1-7.238,0.522-.761-1.29-1.077-0.754-1.828,0.251-1-1.594-.884-1.187-1.889,0.393-.644.793-1.3,1.2-1.937,0.122-2.074-2.754-3.083-1.529-5.749,0.968-2.144,3.863-2.507,5.565-4.011a2.147,2.147,0,0,0,.466-1.464,3.847,3.847,0,0,1,2.915-3.161,0.479,0.479,0,0,1,.134-0.051c0.059-.011.117-0.05,0.175-0.06,0.619,0.035,1.206.072,1.825,0.111,0.606-.014,1.212-0.027,1.819-0.027,3.025-.777,5,1.526,6.72,3.235a4.521,4.521,0,0,1,1.3,1.358c0.367,1.14-.664,2.388-0.813,3.491a30.089,30.089,0,0,0,.059,3.656c-0.117.619-.246,1.238-0.355,1.868-0.045,1.36.89,8.737,0.729,9.588,0.147,2.531.412,25.3,1.444,30.114,0.348,1.5.71,3.016,1.057,4.521h0.162c0-.051-0.013-0.1-0.013-0.147h0.161q1.887-2.308,3.786-4.616a153.524,153.524,0,0,0,9.19-13.429,0.474,0.474,0,0,1,.387-0.372c-0.012-.051-0.012-0.1-0.025-0.147h0.161c-1.8,4.035-5.056,7.682-7.481,11.4-0.161.244-.916,1.3-0.7,1.3v-0.145c1.632-2.232,3.257-4.435,4.9-6.665,3.418-4.763,6.61-9.78,9.6-14.783,1.078-1.82-.2-4.255,1.857-5.66a2.006,2.006,0,0,1,1.561-.39c1.6,0.56,3.187,1.118,4.779,1.686,1.238,0.374,2.232-.012,3.3.764,2.026,1.464,1.742,2.7,1.935,4.81,0.065,0.9.819,1.516,0.8,2.556-0.032,1.626-1.142,2.679-1.4,4.135-0.432,2.581-1.1,17.11,2.529,17.05,0.393-.049.8-0.109,1.2-0.158,0.355-.049,8.268-1.346,8.578-1.407,0.542-.1,2.251-0.4,2.535-0.46,0.567-.084,11.17-2.242,12.911-2.592v0.145c-2.147.5-4.294,0.981-6.442,1.479-5.412,1.077-11.294,2.628-16.833,3.37a12.428,12.428,0,0,1-2.374.193,0.726,0.726,0,0,0-.154.011,4.057,4.057,0,0,0,2.308.8c0.458-.033.9-0.095,1.368-0.156,0.341-.062,22.1-3.3,23.759-4.556s4.915-6.3,6.12-7.452c2.445-2.253,7.54-8.253,11.107-7.539,2.548,0.523,3.985,4.2,4.3,6.3,0.019,0.556.019,1.115,0.032,1.661,0.232,1.149,1.1,2.784.323,3.84-0.871,1.19-3.5.181-4.735,1.093-0.715.846-1.464,1.7-2.186,2.544-7.069-1.649-18.007,17.887-14.975,20.3,1.064,0.837,2.057.037,2.889-.6,1.509-1.186,11.512-14.822,12.627-16.08,0.756-1.009.607-2.4,1.645-3.31a6.291,6.291,0,0,1,3.109-1.081,2.651,2.651,0,0,1,1.748.851c5.2,3.9-2.29,12.59,1.592,17.087a16.016,16.016,0,0,1,1.329,1.052c1.058-.361,10.423-7.887,10.533-7.8-2.528,2.156-5.044,4.326-7.566,6.484,0.928-.509,8.133-5.345,8.223-5.358,0,0.062-2.683,2.728-2.586,2.728v-0.147c0.5-.265,5.818-5.05,7.978-7.173,0.038-.046-1.49-0.858-2.47-1.7-0.749-.654-1.987-1.14-2.245-2.084-0.677-2.57,1.581-4.509,2.883-6.326,1.032-1.407,1.652-3.358,3.289-4.4a7.718,7.718,0,0,1,4.316-.979,1.6,1.6,0,0,1,1.734-.471c3.367,2.41,6.7,4.832,10.055,7.245,0.594,0.5,3.321,3.163,3.837,3.163,0-.035-0.013-0.1-0.013-0.144,3.5-2.193,11.165-9.212,15.163-9.261,1.316-.447,3.064.221,4.108,0.789,4.5,2.544,3.78,8.24,2.877,12.374a33.577,33.577,0,0,1-1.2,3.415c0.826-5.173,3.651-15.885-5.6-15.741V331.1a5.661,5.661,0,0,1,2.979.886,4,4,0,0,1,.916,1.758,12.465,12.465,0,0,1-1.012,11.075c-0.206.363-.51,1.224-1.091,1.235a1.808,1.808,0,0,0-.154-0.144c0.064-.461.154-0.935,0.226-1.421-3.98.075-.072-5.633-3.9-5.572-0.794.679-1.645,0.232-2.5,0.653-1.167.549-5.889,4.037-5.959,5.3-0.026.86,1.548,1.223,1.568,1.93-0.22-.1-0.414-0.2-0.62-0.281,0,0.049,14.015,14.105,14.015,14.177-0.065.014-4.477-4.023-6.643-5.961M215.7,321.494q-3.579,6-7.177,11.959c-0.672,1.128-3.257,4.463-3.2,5.577a1.644,1.644,0,0,0,.155.133C207.109,335.5,217.344,325.032,215.7,321.494Zm29.875,19.754h-0.607q-2.931.545-5.869,1.089a0.52,0.52,0,0,1,.013.135h0.916c0.554-.074,1.1-0.121,1.658-0.184l1.051-.144c0.935-.256,1.9-0.509,2.85-0.751C245.586,341.332,245.574,341.3,245.574,341.248Zm11.331-.727c-0.22-.049-0.419-0.088-0.625-0.135-2.981.788-5.985,1.586-8.972,2.388a0.654,0.654,0,0,1,.013.145h0.3c0.3-.061.606-0.11,0.9-0.17,0.361-.049.709-0.1,1.051-0.146,0.309-.047.619-0.11,0.922-0.143,1.239-.269,2.5-0.523,3.735-0.765,0.439-.24,2.54-0.593,2.515-1.174H256.9ZM330.229,350.7c0.1,0,.361.131,0.464,0.117a1.48,1.48,0,0,1-.174-0.263c-0.7-.5-1.406-0.972-2.1-1.469C329.023,349.633,329.636,350.168,330.229,350.7Zm-35.453.831c-0.052.014,0.884-.823,1.161-1.063-0.1.012-.67,0.484-0.754,0.5C295.047,351.147,294.9,351.34,294.776,351.533Zm35.917-.714c0.155,0.088.316,0.186,0.471,0.256,0,0.06.471,0.5,0.491,0.556a1.039,1.039,0,0,1-.794-0.531C330.8,351.005,330.752,350.917,330.693,350.819Zm12.9,11.128c0,0.049-5.469-5.493-8.236-7.5-1.238-.933-2.463-1.881-3.689-2.822Q337.618,356.783,343.592,361.947Zm151.86-11.381c-0.413.548-.831,1.09-1.238,1.625a32.083,32.083,0,0,0,4.3-3.37,23.222,23.222,0,0,1-2.871,3.274c-0.078.082,0.078-.013,0.065-0.06a8.517,8.517,0,0,0,1.534-.874c-0.25.193-1.876,1.8-2.218,2.214,0.5-.263-5.127,5.723-8.893,8.326-1.329.921-6.264,4.572-7.778,4.67-1.362.084-1.587-1.263-2.51-1.8-1.864-1.114-4.786,1-6.424-2.639-1.87-4.143,2.445-15.669,3.323-18.032a5.951,5.951,0,0,0,.283-0.7h-0.154c-1.587,2.763-5.205,5.682-7.605,8.045-0.142.171-.858,0.837-0.586,0.837a13.983,13.983,0,0,1,2.334-1.456c-1,.861-2.07,1.674-3.018,2.607a45.26,45.26,0,0,1-9.913,6.714c-1.239.207-1.915-.823-2.767-1.42-0.942-.666-2.167-0.434-3.018-1.052-0.8-.6-0.523-7-0.58-8.242-0.11-.063-0.2-0.1-0.3-0.146-0.975,2.618-2.935,4.776-4.431,7.174-0.961,1.429-1.9,2.837-2.851,4.266a14.389,14.389,0,0,1-4.669,1.99c-0.575.263-1.136,0.517-1.71,0.749-0.805.133-1.593,0.269-2.4,0.387-0.633.4-2.813,0.79-3.864,1.237-0.406.376-.813,0.765-1.206,1.118a1.683,1.683,0,0,1-.219.084,1.358,1.358,0,0,1-.168.046,1.675,1.675,0,0,1-1.432-.483c-1.882-1.9-3.043-3.15-3.385-5.745-0.155-1.1.651-5.017,0.813-6.205,0.193-1.67,4.391-10.808,8.222-18.057,2.218-4.737,7.882-13.5,6.979-11.621a36.11,36.11,0,0,1,7.042-6.047,4.343,4.343,0,0,1,1.928-.375c0.245-2.111,1.361-2.96,3.3-3.723,3.419,0.254,9.4,5,10.034,7.928,0.239,1.161-.3,4.533-1,5.37-0.073.07-.614,0.542-0.673,0.605-1.18.788-2.173-.088-3.359,0.4-0.9.375-2.244,1.463-3.127,1.9-0.555.147-2.994-1.283-3.536-1.139-0.361.328-1.444,0.146-1.806,0.5a13.217,13.217,0,0,0-4.192,3.371c-3.662,4.691-5.314,8.326-8.771,15.341a14.859,14.859,0,0,0-1.548,5.247,1.285,1.285,0,0,0,1.167,1.553c4.3-3.744,8.423-8.861,12.164-13.924,1.149-1.565.9-4.23,2.187-5.647,0.612-.667.909-1.381,1.89-1.395-0.065-.338.457-1.27,0.393-1.6,0.142-.133.283-0.289,0.426-0.424a5.42,5.42,0,0,0,1.393.4,4.858,4.858,0,0,1,2.766-.411c0.838,0.216,4.256,3.321,4.348,4.132,0.283,2.28-2.109,3.3-2.543,5.247-0.347,1.517-.218,9.185-0.115,11.439h0.457v-0.145c1.5-.907,14.144-12.408,14.1-13.245h0.149c-1.091,1.9-12.616,13.5-14.234,13.524a1.931,1.931,0,0,0,.014.291,13.456,13.456,0,0,0,2.74-1.38c1.129-.909,11.97-10.507,11.912-11.274a5.246,5.246,0,0,1-1.374,2.111c-1.128,1.249-1.128,1.236-2.277,2.484a83.473,83.473,0,0,1-7.036,6.642c-0.393.316-.748,0.629-1.122,0.945a31.824,31.824,0,0,0,5.869-4.412c3.7-3.358,7.165-6.238,9.888-9.733,0.586-1.245,1.186-2.494,1.766-3.754,2.238-4.507,5.553-12.422,10.97-14.47a10.4,10.4,0,0,1,3.749-.168c2.036,0.021,4.2-.316,6.068.458,1.052,0.437,2.838,2.414,2.889,3.5,3.527-.17,2.961,4.191,2.277,4.2a1.784,1.784,0,0,1,.154.134c0.569,1.017,1.046,3.827.581,4.966-0.219.56-1.8,0.9-2.2,1.333-0.4.5-.793,1.009-1.194,1.5-1.31,1.237-4.063,2.6-5.965,1.442-1.755-1.053-.883-4.388-2.007-5.73-0.561-.68-3.817-1.079-5.527,1.514-3.405,5.926-3.373,6.41-6.3,14.747a21.744,21.744,0,0,0-.993,6.168c-0.045,1,.143,2.123,1.413,2.111,0.348-.16.354,0,0.7-0.146a4.4,4.4,0,0,0,.316-0.437c0.878,0.376,1.1.074,1.085-.207,5.042-1.766,11.105-8.25,11.15-8.25a43.37,43.37,0,0,1-8.191,7.67c6.6-3.322,12.879-9.648,18.168-14.882,0.93-.983,1.851-1.974,2.781-2.956h0.141c-0.626.921-1.257,1.854-1.882,2.789C501.928,343.826,498.575,347.026,495.452,350.566Zm1.334-23.983c0.466,0.667.962,1.311,1.439,1.951h0.465a2.746,2.746,0,0,0-1.767-2.095C496.878,326.485,496.826,326.548,496.786,326.583Zm-55.465,22.031a1.144,1.144,0,0,0-.16-0.144c-1.612,2.144-3.2,4.3-4.831,6.423,2.871-.474,4.051-3.469,4.741-5.84C441.128,348.868,441.057,348.614,441.321,348.614Zm27.631-2.2a5.571,5.571,0,0,0-.748,1.056,3.822,3.822,0,0,0,1.3-1.516C469.474,346.047,469,346.3,468.952,346.409Zm64.6-2.144c-0.246.012-.143,0.084-0.123,0.289a0.867,0.867,0,0,0,.521-0.87C533.839,343.889,533.7,344.058,533.556,344.265Zm-66.423,4.121c0.1-.047.981-0.862,1.071-0.921-0.09,0-.6.373-0.7,0.373C467.506,347.889,467.119,348.339,467.133,348.386Zm-175.363,13.2h-0.129v0.156c0.111-.013.208-0.013,0.31-0.025,0.329-.338.665-0.679,0.968-1.03a0.619,0.619,0,0,0-.142.011C292.442,360.987,292.112,361.29,291.77,361.584Zm45.4,1.791c0,0.063.348,0.5,0.348,0.547,0.071,0,.567.23,0.645,0.23-0.129-.183-1.07-1-1.174-1.188A2.353,2.353,0,0,0,337.169,363.375Zm97.548-59.826c2.6,0.517,3.69.64,6.172,1.245,0.69,0.218,5.709.911,5.709,0.958a80.167,80.167,0,0,0-8.41-.012,11.034,11.034,0,0,1,1.521.535c-1.1-.014-3.321.009-3.321,0.048,0.968,0.277,2.916.921,2.916,0.943-2.329-.061-4.657-0.145-6.985-0.229-1.4-.074-29.145-1.529-30.539-0.823,0,0-2.91,13.452-3.076,15.341-0.014.267-.471,2.761-0.065,2.761,3.651-1.224,14.957-5.454,19.071-6.541,0.3-.06,1.181.133,1.489,0.1,0.653-.328.847,0.121,1.492-0.207,4.5-2.666,3.34,4.654,4.985,4.642,0,0.025.012,0.086,0.012,0.121h0.143c0.406-2.072,1.98-.751,2.218.665,0.219,1.3-.575,1.891-0.561,2.982,0.174,1.89.381,3.758,0.561,5.635-0.471,5.054-2.658,8.607-5.378,12-0.356.447-1.439,1.959-2.09,1.959,0-.045,5.172-6.129,6.192-11.522-0.065-.886.432-1.854,0.373-2.761-0.064,0-.219.929-0.272,0.929,0,0.05-.34,1.674-0.34,1.723a9.139,9.139,0,0,1-1.143,3.1c-0.553,1.6-4,6.677-6.113,6.724,0-.06,2.187-2.072,2.7-3.575v-0.146c-0.045,0-10.263,9.9-11.037,9.914-0.012-.134,6.18-7.489,8.895-11.247a3.053,3.053,0,0,1,.516-0.653c0-.035.148-0.351,0.148-0.391a0.259,0.259,0,0,1-.16-0.144c-0.942.582-2.891,3.151-3.948,3.175,0-.049,2.386-3.245,2.431-3.284-0.1,0-.69.46-1.315,0.774,0,0.051.825-1.428,1.116-1.912a1.114,1.114,0,0,0,.141-0.134h-0.315c-1.233,1.332-3.844,4.011-3.883,4.011-0.014-.181,5.437-9.137,3.257-9.8-1.942-.618-19.639,6.615-20.982,7.975-1.077,1.1-1.1,3.126-1.354,4.673-0.9,6.511-1.8,13-2.7,19.524a51.656,51.656,0,0,0,.729,8.316,16.9,16.9,0,0,1,.446,4.521c0,0.084-.032.18-0.039,0.278a8.786,8.786,0,0,1-1.374,3.077c-0.374.5-1.077,0.774-1.238,1.379-0.2,1.251-.432,2.5-0.664,3.749-0.465,1.016-.948,2.046-1.438,3.065-0.421,1.877.123,4.24-.794,5.9-0.09.131-.18,0.266-0.289,0.4-0.073.061-.143,0.133-0.207,0.194-1.251,1.02-2.942.158-4.153-.373-1.433-.63-4.484-1.723-4.56-3.6-3.586-.486-1.948-2.728-2.773-4.872a14.847,14.847,0,0,1-.3-2.7c-0.207-.616-0.46-1.223-0.665-1.853-0.625-1.829.463-3.915,1.167-5.4,3.3-7.066,4.276-25.839,4.831-29.509,0.464-3.079-7.2-.679-7.114-4.6,0.026-.775.251-5.8,0.555-6.021a2.316,2.316,0,0,1,1.361-.09v-0.143c1.1-2.1,3.16-3.04,5.275-4.109,0.717-.421,1.413-0.847,2.122-1.272,0.864-1.044,2.3-19.146,2.619-21.7,0.012-.255.193-1.272-0.072-1.272v-0.137c-2.432.038-10.486-1.016-8.991,2.5,0.659,1.621,2.219,2.968,2.948,4.591,0.633,1.4.588,3.54,0.652,5.054-1.342.656-1.471,2.363-3.252,3.03-3.068,1.161-12.852-.609-13.968-3.383-0.439-1.114.335-1.926,0.354-2.943-0.522-1.625-1.051-3.223-1.579-4.849-0.543-.653-1.091-1.307-1.64-1.972-0.592-.863-1.172-1.711-1.778-2.584-0.53-.725-1.349-1.065-1.8-1.832-1.4-2.384.594-5.608,1.87-7.45a2.439,2.439,0,0,1,2.044-1.03,4.161,4.161,0,0,0,1.452-.851c1-1.319.458-2.919,2.3-3.818,2.515-1.21,5.83.5,8.236,0.96,1.256,0.084,2.515.193,3.785,0.29,2.115,0.268,7.964,1.093,10.087,1.359,0.844-1.721-1.167-7.041,3.947-7.128,0.542-1.2,1.689-1.431,3.108-1.438,0.149-.1.3-0.207,0.459-0.3,2.025-.047,4.294,1.867,5.068,3.53,0.285,0.412.575,0.8,0.852,1.184a7.656,7.656,0,0,1,3.18,2.486c0.58,0.872-1.593,3.489.8,3.914,2.334,0.412,13.949,1.661,16.368,1.817,5.5,0.486,8.887.886,14.357,1.383,2.889,0.34,10.827,1.4,11.887,1.61,0,0.062-20.756-1.114-20.756-1.077,3.573,0.17,20.922,2.449,20.922,2.5-2.334-.2-5.785.181-8.132-0.026,0,0.047,16.375,3.3,16.375,3.345C441.368,304,434.717,303.5,434.717,303.549Zm-48.345-7.031c-0.014-.109-0.014-0.195-0.02-0.29-4-.365-10.821-1.212-14.839-1.577-0.7.16-1.38,0.316-2.084,0.474v0.131C374.143,295.525,381.664,296.253,386.372,296.518Zm4.4,68.955q-0.728,3.9-1.458,7.791h0.309c0-.05-0.012-0.1-0.012-0.146C390.926,372.15,391.248,367.134,390.777,365.473Zm0.786,4.084c-0.065.509-.735,3.259-0.3,3.245,0.257,0.1.527,0.185,0.766,0.281V372.95A4.455,4.455,0,0,0,391.563,369.557ZM394.492,342q-0.912,5.253-1.833,10.5c-0.051.278-.444,1.068,0.064,1.068-0.359,2.253-.431,2.956-0.785,5.221-0.053.207-.3,2.328-0.02,2.314,0.716-4.651,1.45-8.807,2.277-14.166A14.569,14.569,0,0,0,394.492,342ZM614.844,325.18c0,0.057-.709.2-0.709,0.242-0.2-.037-0.393.008-0.614-0.025,0.757,3.939-5.3,1.853-7.79,1.888-1.077.012-2.934,1.893-3.528,2.363,0.3-.119,1.98-0.872,2.09-0.872,0,0.061-4.269,5.335-7.056,8.8a93.839,93.839,0,0,0-7.178,10.457c-1.091,1.846-.749,4.911-1.45,6.923-0.376,1.079-1.427,1.731-2.064,2.7-0.426.715-.866,1.419-1.3,2.133a3.117,3.117,0,0,1-2.56,1.184c-1.4-.249-2.644-2.261-3.348-3.207-0.76-.765-1.509-1.526-2.257-2.305-1.888-2.6-1.069-6.312.608-8.566,0.94-1.03,1.889-2.072,2.863-3.116,0.7-1.247,3-13.255,3.191-13.973-3.385-.062-6.146-0.653-9.293-0.811-0.51.1-1.012,0.207-1.5,0.292-0.864-.05-1.708-0.085-2.566-0.134a0.218,0.218,0,0,0,.141.134c2.974,0.861,5.941,1.694,8.927,2.556v0.133q-3.456-.711-6.9-1.452c0,0.057,1.077.519,1.077,0.559-0.961-.172-1.921-0.342-2.9-0.523a17.441,17.441,0,0,0,2.787,1.09c0,0.037-4.3-.411-4.882-0.486a1.923,1.923,0,0,1,.012.268c3.961,9.619-1.632,21.036-9.448,25.824a16.553,16.553,0,0,1-8.519,2.884c-1.161.084-3.852,0.4-4.677-.144-2.148-1.469-3.9-2.23-4.315-5.721-0.657-3.368.658-7.756,1.432-9.549,0.723-1.807,1.787-3.263,2.5-5.078a1.948,1.948,0,0,0,.244-0.245,2.324,2.324,0,0,1-.011-0.277c-0.155,0-1.781.983-1.748,1.576h-0.136c-0.329-.255-0.645-0.546-0.948-0.825a1.486,1.486,0,0,1-.174.136,0.629,0.629,0,0,1-.135.008c-1.233,1.965-3.373,2.305-3.5-.652a0.2,0.2,0,0,0-.149.143A97.775,97.775,0,0,0,532.1,348.4c-0.116.193-.723,0.979-0.438,0.972a0.292,0.292,0,0,0-.02-0.137c0.057,0,.682-0.583.729-0.583-0.148.316-.994,1.687-1.225,2.136h0.129a8.439,8.439,0,0,1,1.444-1.3c-8.062,10.255-12.241,12.484-13.938,13.2-1.683.921-6.2,1.818-7.841,0-1.032-1.128-1.161-2.556-1.458-4.049-1.065-4.966-.445-12.627.373-17.559,0.471-3.212.929-6.408,1.394-9.622-0.833.072-1.677,0.145-2.49,0.232-2.754-.439-4.649-4.2-4.507-6.606,0.419-1.333.839-2.654,1.243-3.973,0.4-.765,1.736-1.056,1.685-2.014,1.9-.5,4.223.777,6.236,0.751a2.034,2.034,0,0,0-.013-0.288c0.58-2.123,2.136-7.649,2.708-9.782,0.556-1.719,1.091-3.43,1.632-5.126-0.123-.521.892-1.842,0.78-2.363,0.143-1,.426-2.109.575-3.114,0.625-1.7,3.423-3.151,3.423-3.358,0.852-.64,1.755-1.259,2.633-1.891,1.606-.025,3.8.426,4.526,1.821,0.162,0.614.317,1.245,0.485,1.863,0.844,1.688,3.1,2.666,3.553,4.57,0.465,1.963-1.192,1.565-2.011,2.607-0.51.653-.33,1.547-0.923,2.228-0.942.679-1.9,1.38-2.876,2.086-1.722,1.393-4.5,8.931-4.843,11a172.841,172.841,0,0,1,21.263.849c-4.321-.168-13.891-0.279-13.891-0.23,1.5,0.109,3.326.292,8.093,0.679,1.632,0.144,3.463.485,4.534,0.679,0,0.048.574,0.037,0.58,0.07-3.185-.033-5.443.16-8.636,0.123-1.605.037,1.685,0.39,1.612,0.437,0.02,0.051.084,0.4,3.121,0.751,1.175,0.254.084,0.582,1.273,0.837,0.056,0.035,1.682.414,1.733,0.472,0,0.051.42,0.168,0.42,0.207-0.762-.072-1.934-0.232-2.7-0.316,0.149,0.084.311,0.182,0.466,0.277,0.013,0.049.625,0.193,0.625,0.246-0.446,0-1.534-.1-1.974-0.086,0,0.047-.684-0.051-0.684-0.013,0.4,0.134,1.5.425,1.917,0.556,0,0.05.018,0.1,0.018,0.134-1.251.063-6.526-.289-9.319,0.558-3.064.935-10.229,1.793-10.667,2.666-0.445.921-2.217,14.954-2.587,17.67a6.127,6.127,0,0,0,.4,3.729v0.162c1.78-.195,3.681-1.688,4.96-2.7,1.315-1.044,11.407-10.917,11.536-10.819-2,1.719-2.185,4.045-3.94,6-0.123.146-.031,0.751,0.614,0.014,0.535-.439,1.862-1.491,2.488-1.881-0.85.692-2.547,2.523-2.855,3.855-0.028.156,0.1,0.677-.157,0.691-0.7.8-1.419,1.623-2.148,2.433a1.077,1.077,0,0,1,.149-0.008c2.773-1.481,8.765-9.844,9.5-10.776,0.272-.627-0.283-1.321-0.58-1.793-0.116-.18-0.767-0.97-0.464-0.982,1.316-1.321,4.341-4.142,6.307-4.193,1.335-.714,2.942-0.884,4.231-1.719,2.115-1.393,3.108-4.217,6.088-4.23,0.3,0,1.677.1,1.658-.17H556.2c0.2-2.433,3.67-3.7,6.049-3.153a0.93,0.93,0,0,1,.774.378c1.677-.084,2.425,1.333,3.594,2.191,0.754,0.437,1.515.851,2.269,1.275,3.387,1.66,11.191,2.825,15.4,2.4,1.018-.084-0.065-3.719.875-5.271,0.62-1.03,4.29-2.609,5.748-2.644a2.251,2.251,0,0,1,2.386-.119c2.185,0.726,3.024,4.289,2,6.592-0.208.388-.053-2.026-0.278-1.661-0.219.775,0.244,1.661-.162,2.375-0.477.46,0.013,0.825-.458,1.284-0.824.9-1.368,4.146-1.323,4.146,0,0.037.014,0.1,0.014,0.146,1.755-1.576,5.025-5.467,6.178-6.63,1-.728,1.993-1.456,2.986-2.2,0.143-.63.252-1.26,0.381-1.9a4.8,4.8,0,0,1,1.11-1.419c1-1.165,2.076-2.632,3.927-1.416,2.206,1.428,3.148,5.816,6.25,5.767a3.235,3.235,0,0,1-1.386-.06A7.664,7.664,0,0,0,614.844,325.18Zm-85.41,18.853h-0.16c-0.311.328-3.026,3.02-2.434,3.007V346.9C527.6,346.337,529.473,345.088,529.434,344.033Zm32.55-10.07c-0.477-.859-0.954-1.72-1.438-2.578a9.421,9.421,0,0,0-2.508-3.469c-0.1,1.044.225,2.123-.111,3.065-0.573.706-1.114,1.407-1.683,2.086a66.846,66.846,0,0,0-3.244,6.1c-0.7,1.758-6.416,12.24-2.49,13.087,1.343,0.292,3.883-.461,4.909-0.931C563.178,347.768,563.81,339.223,561.984,333.963Zm6.6,2.45a23.252,23.252,0,0,1-2.224,9.866C567.9,344.932,569.931,338.921,568.588,336.413Zm32.365-11.272a49.742,49.742,0,0,0-4.226,4.254c-0.025.232-1.063,1.393-1.088,1.625h0.134C597.173,328.885,600.54,328.148,600.953,325.141Zm0.979,3.54c0,0.046,1.51-1.238,1.51-1.177,0.968-.749,1.243-0.943,1.322-1C604.893,326.983,602.287,328.534,601.932,328.681Zm52.086-5.357a7.768,7.768,0,0,1-.631,4.957c-0.794,1.951-1.021,1.709-1.794,3.672-1.689,4.423-14.066,42.56-14.84,44.874a66.593,66.593,0,0,1-2.773,8.022c-4.173,3.418-3.845,2.388-9.19,2.886a104.779,104.779,0,0,1-22.548-1.649c-1.1-.17-2.071.3-3.109,0.049a10.726,10.726,0,0,1-2.515-1.235c-0.934-.33-1.876-0.633-2.832-0.947a8.066,8.066,0,0,1-3.172-1.334c2.316,0.8,3.752,1.043,5.63,1.564v-0.144c-1.149-.548-11.39-3.928-8.05-3.686a20.4,20.4,0,0,1-2.675-3.128c0.225-.06.457-0.123,0.684-0.179,6.772-.1.883-8.264,7.19-8.352,2.605-.688,3.682,1.2,5.507,2.2,2.336,1.247,4.664,2.484,6.993,3.732,3.346,1.805,9.416,4.7,13.511,4.871,1.839,0.084,4.98-.605,6.031-1.952,1.341-1.758,10.982-33.227,11.164-34.841H636.47c-1.961,1.2-11.887,10.57-14.932,14.461-0.561.542-3.076,2.119-3.889,1.84-1.888-.654-3.424-4.266-3.579-6.121-0.115-1.2,4.482-22.613,4.728-23.885-2.677-1.975-.813-1.5-0.213-3.368,0.457-1.454-.987-2.012-2.291-1.986,0.362-.994,2.193-0.549,3.032-1.031,2.245-1.371,5.529-6.653,9.023-4.677a2.354,2.354,0,0,1,1.226,1.547c0.058,0.04.109,0.1,0.168,0.135a0.764,0.764,0,0,0,.123-0.135c1.7-.542,4.487-0.361,3.875,2.149-0.961,1.623-1.839,1.85-2.806,3.5-2.34,2.775-4.984,12.317-5.914,14.521-0.29.631-1.108,3.938-1.108,3.938,5.751-6.605,10.2-15.122,12.24-19.22,1.219-2.46-.045,1.721,1.135-0.751,0.348-.921.71-1.842,1.032-2.776a4.734,4.734,0,0,1,1.644-1.622c0.176-.1,2.562-0.316,2.574-0.025,0.039-.061.412-3.284,2.238-3.312,0-.046,1.174-0.4,1.174-0.433a4.827,4.827,0,0,1,3.458,1.394c0.424,0.474.858,0.934,1.27,1.369,1.38,0.921,4.321-.132,3.27,2.861a1.347,1.347,0,0,1-.253.86c0.026,0.072-.07.523-0.058,0.605C653.735,322.922,653.942,322.936,654.018,323.324Zm-57.992,59.369c-0.362-.233-2.6-1.321-2.961-1.565-0.143.049-1.626-.014-1.775,0.039C591.814,381.346,595.51,382.523,596.026,382.693Zm6.273,1.539c1.278,0.268,3.741.763,5.019,1.042-0.541-.767-1.909-0.932-2.078-1.178a6.852,6.852,0,0,0-2.366-.715c-0.135.342-1.355-.47-1.5-0.144-0.034.047-1.562,0.5-1.626,0.556C599.817,383.793,602.254,384.232,602.3,384.232Zm8.179,1.9c-1.239-.268-9.907-1.516-10.01-1.468A31.864,31.864,0,0,0,610.478,386.135Zm40.716-57.4c-0.827,1.093-5.179,7.077-4.767,8.5,0.1-.035-5.384,20.066-5.294,20.033C641.248,357.243,651.155,329.434,651.194,328.739Z" transform="translate(-140.406 -280.063)"/>
</svg>
